<svg xmlns="http://www.w3.org/2000/svg" viewBox="0 0 50 50" width="50" height="50" fill="currentColor" aria-hidden="true">
  <path d="M25 2C12.31 2 2 12.31 2 25c0 4.08 1.12 7.89 2.98 11.21L2.04 46.73a1 1 0 0 0 1.2 1.24l10.97-2.72A22.87 22.87 0 0 0 25 48c12.69 0 23-10.31 23-23S37.69 2 25 2zm0 44c-3.72 0-7.21-.97-10.24-2.67a1 1 0 0 0-.73-.1L4.43 45.62 7 36.43a1 1 0 0 0-.1-.78A20.9 20.9 0 0 1 4 25C4 13.39 13.39 4 25 4s21 9.39 21 21-9.39 21-21 21z"/>
  <path d="M16.64 13c-.64 0-1.55.24-2.31 1.05C13.88 14.54 12 16.37 12 19.59c0 3.36 2.33 6.26 2.61 6.64l.01.01c-.03-.04.36.52.87 1.19.51.67 1.23 1.55 2.13 2.5 1.8 1.9 4.34 4.09 7.49 5.43 1.45.62 2.59.99 3.46 1.26 1.6.5 3.06.43 4.16.27.82-.12 1.73-.52 2.62-1.08.89-.57 1.77-1.27 2.16-2.34.28-.77.42-1.48.47-2.06.03-.29.03-.55.01-.79-.02-.24 0-.42-.22-.79-.47-.76-.99-.78-1.54-1.05-.31-.15-1.18-.58-2.05-.99-.87-.42-1.63-.79-2.09-.95-.29-.11-.65-.26-1.17-.2-.52.06-1.03.43-1.32.87-.28.42-1.42 1.76-1.77 2.15l-.11-.06c-.43-.21-.95-.39-1.73-.8-.77-.41-1.74-1.01-2.8-1.95v0c-1.58-1.39-2.69-3.14-3.04-3.72.02-.03 0 0 .05-.05l.01-.01c.36-.35.67-.77.94-1.08.38-.44.55-.82.73-1.18.36-.72.16-1.5-.05-1.92v0c.01.03-.11-.25-.25-.58-.14-.32-.31-.74-.5-1.19-.37-.9-.79-1.91-1.03-2.5v0c-.29-.69-.69-1.2-1.21-1.44-.52-.24-.98-.17-1-.17h0A13.95 13.95 0 0 0 16.64 13z"/>
</svg>
