<svg xmlns="http://www.w3.org/2000/svg"  viewBox="0 0 72 72" width="256px" height="256px"><path d="M 36 11 C 29.383 11 24 16.607 24 23.5 C 24 30.393 29.383 36 36 36 C 42.617 36 48 30.393 48 23.5 C 48 16.607 42.617 11 36 11 z M 36 37.142578 C 26.527 37.142578 18.248438 42.385453 15.398438 50.189453 C 13.836438 54.473453 17.040734 59 21.552734 59 L 38.414062 59 C 34.098062 50.567 38.592687 42.052766 44.804688 38.759766 C 42.097687 37.720766 39.116 37.142578 36 37.142578 z M 51.875 41.15625 C 45.817 41.15625 40.90625 46.067 40.90625 52.125 C 40.90625 58.183 45.817 63.09375 51.875 63.09375 C 57.933 63.09375 62.84375 58.183 62.84375 52.125 C 62.84375 46.067 57.933 41.15625 51.875 41.15625 z M 56.576172 46.46875 C 56.961379 46.462545 57.353547 46.568797 57.701172 46.794922 C 58.626172 47.397922 58.887203 48.6375 58.283203 49.5625 L 52.658203 58.1875 C 52.317203 58.7105 51.750906 59.044844 51.128906 59.089844 C 51.079906 59.092844 51.030422 59.09375 50.982422 59.09375 C 50.411422 59.09375 49.865375 58.849969 49.484375 58.417969 L 45.642578 54.064453 C 44.911578 53.236453 44.990359 51.973188 45.818359 51.242188 C 46.645359 50.511187 47.911625 50.590969 48.640625 51.417969 L 50.744141 53.800781 L 54.933594 47.376953 C 55.310469 46.798203 55.93416 46.479092 56.576172 46.46875 z"/></svg>