<svg xmlns="http://www.w3.org/2000/svg"  viewBox="0 0 48 48" width="240px" height="240px"><path d="M 24 4 A 1.50015 1.50015 0 0 0 23.714844 4.0234375 A 1.50015 1.50015 0 0 0 23.701172 4.0253906 C 21.387092 4.1522396 19.423207 5.7056156 17.960938 7.8828125 C 16.548026 9.9865178 15.52911 12.803166 14.853516 16 L 9 16 C 9.7262422 14.641714 10.627518 13.390733 11.681641 12.283203 A 1.50015 1.50015 0 0 0 10.529297 9.7363281 A 1.50015 1.50015 0 0 0 9.5097656 10.216797 C 6.0971457 13.802317 4 18.665851 4 24 C 4 35.027708 12.972292 44 24 44 C 27.536994 44 30.871004 43.077334 33.757812 41.460938 A 1.50015 1.50015 0 1 0 32.292969 38.84375 C 31.628114 39.216019 30.934405 39.540624 30.21875 39.822266 C 31.074403 38.484966 31.794667 36.908692 32.373047 35.126953 A 1.50015 1.50015 0 1 0 29.519531 34.201172 C 28.7952 36.432527 27.839236 38.225202 26.839844 39.376953 C 25.840451 40.528704 24.895801 41 24 41 C 22.890307 41 21.656409 40.234947 20.453125 38.443359 C 19.424662 36.912065 18.573527 34.618839 17.953125 32 L 38.998047 32 C 38.532635 32.870233 37.999168 33.698371 37.394531 34.470703 A 1.50015 1.50015 0 1 0 39.755859 36.320312 C 42.413323 32.925805 44 28.639089 44 24 C 44 12.972292 35.027708 4 24 4 z M 24 7 C 25.109693 7 26.343591 7.7650526 27.546875 9.5566406 C 28.575338 11.087935 29.426473 13.381161 30.046875 16 L 17.953125 16 C 18.573527 13.381161 19.424662 11.087935 20.453125 9.5566406 C 21.656409 7.7650526 22.890307 7 24 7 z M 30.230469 8.1894531 C 36.540646 10.670568 41 16.796774 41 24 C 41 25.744502 40.724321 27.419 40.238281 29 L 12.394531 29 A 1.50015 1.50015 0 1 0 12.394531 32 L 14.853516 32 C 15.49759 35.047688 16.457481 37.742258 17.769531 39.810547 C 11.459354 37.329432 7 31.203226 7 24 C 7 22.257138 7.2648481 20.58012 7.75 19 L 35.787109 19 A 1.50015 1.50015 0 1 0 35.787109 16 L 33.146484 16 C 32.50241 12.952312 31.542519 10.257741 30.230469 8.1894531 z M 16.292969 20 C 14.477969 20 13 21.794 13 24 C 13 26.206 14.477969 28 16.292969 28 C 17.738969 28 18.603719 27.019453 18.886719 26.439453 C 19.129719 25.943453 18.924734 25.344562 18.427734 25.101562 C 17.931734 24.859562 17.333797 25.064547 17.091797 25.560547 C 17.089797 25.564547 16.851969 26 16.292969 26 C 15.604969 26 15 25.065 15 24 C 15 22.935 15.604969 22 16.292969 22 C 16.816969 22 17.052609 22.374078 17.099609 22.455078 C 17.346609 22.939078 17.938688 23.138437 18.429688 22.898438 C 18.925687 22.656437 19.131672 22.056547 18.888672 21.560547 C 18.605672 20.980547 17.739969 20 16.292969 20 z M 23.488281 20 C 21.558281 20 19.988281 21.794 19.988281 24 C 19.988281 26.206 21.558281 28 23.488281 28 C 25.418281 28 26.988281 26.206 26.988281 24 C 26.988281 21.794 25.418281 20 23.488281 20 z M 28.951172 20.042969 C 28.849828 20.046781 28.747438 20.065812 28.648438 20.101562 C 28.252437 20.244563 27.988281 20.621969 27.988281 21.042969 L 27.988281 27.042969 C 27.988281 27.594969 28.436281 28.042969 28.988281 28.042969 C 29.540281 28.042969 29.988281 27.594969 29.988281 27.042969 L 29.988281 23.804688 L 30.720703 24.681641 C 31.100703 25.137641 31.877813 25.137641 32.257812 24.681641 L 32.988281 23.804688 L 32.988281 27.042969 C 32.988281 27.594969 33.436281 28.042969 33.988281 28.042969 C 34.540281 28.042969 34.988281 27.594969 34.988281 27.042969 L 34.988281 21.042969 C 34.988281 20.622969 34.724125 20.245562 34.328125 20.101562 C 33.934125 19.958563 33.490703 20.078344 33.220703 20.402344 L 31.488281 22.480469 L 29.757812 20.402344 C 29.555312 20.160094 29.255203 20.031531 28.951172 20.042969 z M 23.488281 22 C 24.301281 22 24.988281 22.916 24.988281 24 C 24.988281 25.084 24.301281 26 23.488281 26 C 22.675281 26 21.988281 25.084 21.988281 24 C 21.988281 22.916 22.675281 22 23.488281 22 z"/></svg>