<svg xmlns="http://www.w3.org/2000/svg"  viewBox="0 0 24 24" width="240px" height="240px" fill-rule="evenodd" clip-rule="evenodd"><path d="M 7.5664062 1.4101562 C 7.0399707 1.4385215 6.555125 1.5759687 6.125 1.8242188 C 4.978 2.4862187 4.3148594 3.882625 4.2558594 5.765625 C 4.2351939 6.4176486 4.2909848 7.1350142 4.4121094 7.8945312 C 4.0897237 8.0633905 3.7839201 8.2394857 3.5078125 8.4277344 C 2.0538125 9.4197344 1.25 10.678 1.25 12 C 1.25 13.322 2.0538125 14.580266 3.5078125 15.572266 C 3.8048594 15.774791 4.1378734 15.962609 4.4882812 16.142578 C 4.4011207 16.804 4.3662957 17.43175 4.3925781 18.007812 C 4.4765781 19.847812 5.1489219 21.220813 6.2949219 21.882812 C 7.4409219 22.543813 8.9655625 22.438797 10.601562 21.591797 C 11.033443 21.367994 11.476428 21.078861 11.921875 20.753906 C 12.46494 21.181618 13.003775 21.543615 13.527344 21.824219 C 15.187344 22.715219 16.728 22.837781 17.875 22.175781 C 19.022 21.513781 19.685141 20.117375 19.744141 18.234375 C 19.764806 17.582351 19.709015 16.864986 19.587891 16.105469 C 19.910276 15.936609 20.21608 15.760514 20.492188 15.572266 C 21.946188 14.580266 22.75 13.322 22.75 12 C 22.75 10.678 21.946188 9.4197344 20.492188 8.4277344 C 20.195141 8.2252094 19.862127 8.037391 19.511719 7.8574219 C 19.598879 7.1959999 19.633704 6.56825 19.607422 5.9921875 C 19.523422 4.1521875 18.851078 2.7791875 17.705078 2.1171875 C 16.559078 1.4561875 15.034438 1.5612031 13.398438 2.4082031 C 12.966557 2.6320065 12.523572 2.921139 12.078125 3.2460938 C 11.53506 2.818382 10.996225 2.4563851 10.472656 2.1757812 C 9.4351563 1.6189062 8.4437988 1.3628809 7.5664062 1.4101562 z M 7.8339844 2.890625 C 8.4155371 2.9000488 9.0705469 3.1261719 9.7636719 3.4980469 C 10.129281 3.6940342 10.50312 3.9457989 10.878906 4.2226562 C 10.166126 4.874861 9.4625387 5.6511799 8.7871094 6.515625 C 7.7202124 6.6904528 6.7280976 6.9458557 5.8398438 7.2714844 C 5.7764931 6.7594656 5.7415378 6.2661498 5.7558594 5.8125 C 5.7948594 4.5555 6.109 3.5650469 6.875 3.1230469 C 7.16225 2.9572969 7.4850527 2.8849707 7.8339844 2.890625 z M 16 3.1757812 C 16.346805 3.1756992 16.667828 3.2522187 16.955078 3.4179688 C 17.721078 3.8609688 18.053375 4.8315469 18.109375 6.0605469 C 18.12606 6.4299692 18.10483 6.8271375 18.068359 7.2363281 C 17.209634 6.9286054 16.254607 6.6861902 15.232422 6.5175781 C 14.584708 5.6729843 13.913581 4.9151424 13.232422 4.2597656 C 13.520789 4.0645197 13.807597 3.8864288 14.089844 3.7402344 C 14.772344 3.3864844 15.421992 3.175918 16 3.1757812 z M 12.048828 5.1875 C 12.402528 5.5187099 12.75358 5.8926029 13.101562 6.2832031 C 12.738603 6.2637992 12.373038 6.25 12 6.25 C 11.640178 6.25 11.287976 6.2651322 10.9375 6.2832031 C 11.304945 5.8837726 11.67506 5.5184348 12.048828 5.1875 z M 12 7.75 C 12.830596 7.75 13.633978 7.8059169 14.402344 7.9042969 C 14.846725 8.520246 15.277848 9.175789 15.681641 9.875 C 16.089962 10.58246 16.447955 11.291412 16.761719 11.992188 C 16.452038 12.698465 16.092879 13.412611 15.681641 14.125 C 15.2766 14.826235 14.843701 15.484454 14.394531 16.097656 C 13.628593 16.195368 12.827688 16.25 12 16.25 C 11.169404 16.25 10.366022 16.194083 9.5976562 16.095703 C 9.1532751 15.479754 8.722152 14.824211 8.3183594 14.125 C 7.910038 13.41754 7.5520446 12.708588 7.2382812 12.007812 C 7.5479623 11.301535 7.9071212 10.587389 8.3183594 9.875 C 8.7233997 9.173765 9.1562994 8.5155465 9.6054688 7.9023438 C 10.371407 7.8046316 11.172312 7.75 12 7.75 z M 7.5273438 8.3027344 C 7.3558571 8.5732705 7.1831231 8.8416119 7.0195312 9.125 C 6.8334815 9.4472917 6.6645992 9.7710631 6.4980469 10.09375 C 6.3487653 9.6423464 6.2158159 9.1988764 6.1113281 8.7675781 C 6.5543676 8.5930217 7.0249188 8.4355268 7.5273438 8.3027344 z M 16.472656 8.3027344 C 16.95639 8.4305867 17.409025 8.5833553 17.837891 8.75 C 17.744658 9.1746641 17.623719 9.6132049 17.484375 10.058594 C 17.322003 9.7472691 17.160056 9.43614 16.980469 9.125 C 16.816945 8.8418396 16.643482 8.5736468 16.472656 8.3027344 z M 19.212891 9.40625 C 19.359832 9.4924868 19.512119 9.5763136 19.646484 9.6679688 C 20.620484 10.331969 21.25 11.114 21.25 12 C 21.25 12.886 20.620484 13.668031 19.646484 14.332031 C 19.52536 14.414655 19.387231 14.490128 19.255859 14.568359 C 19.037242 13.733893 18.746266 12.866743 18.380859 11.980469 C 18.734069 11.098319 19.01216 10.23499 19.212891 9.40625 z M 4.7441406 9.4316406 C 4.9627583 10.266107 5.2537336 11.133257 5.6191406 12.019531 C 5.2659305 12.901681 4.9878403 13.76501 4.7871094 14.59375 C 4.6401681 14.507513 4.4878809 14.423686 4.3535156 14.332031 C 3.3795156 13.668031 2.75 12.886 2.75 12 C 2.75 11.114 3.3795156 10.331969 4.3535156 9.6679688 C 4.4746402 9.5853455 4.6127693 9.5098725 4.7441406 9.4316406 z M 12 9.75 A 2.25 2.25 0 0 0 12 14.25 A 2.25 2.25 0 0 0 12 9.75 z M 17.501953 13.90625 C 17.651235 14.357654 17.784184 14.801124 17.888672 15.232422 C 17.445632 15.406978 16.975081 15.564473 16.472656 15.697266 C 16.644143 15.426729 16.816877 15.158388 16.980469 14.875 C 17.166519 14.552708 17.335401 14.228937 17.501953 13.90625 z M 6.515625 13.941406 C 6.6779974 14.252731 6.8399439 14.56386 7.0195312 14.875 C 7.1830549 15.15816 7.3565179 15.426353 7.5273438 15.697266 C 7.0436097 15.569413 6.5909748 15.416645 6.1621094 15.25 C 6.2553419 14.825336 6.3762813 14.386795 6.515625 13.941406 z M 18.160156 16.728516 C 18.223507 17.240534 18.258462 17.73385 18.244141 18.1875 C 18.205141 19.4445 17.891 20.434953 17.125 20.876953 C 16.359 21.318953 15.345328 21.096953 14.236328 20.501953 C 13.870719 20.305966 13.49688 20.054201 13.121094 19.777344 C 13.833874 19.125139 14.537461 18.34882 15.212891 17.484375 C 16.279788 17.309547 17.271902 17.054144 18.160156 16.728516 z M 5.9316406 16.763672 C 6.7903664 17.071395 7.7453932 17.31381 8.7675781 17.482422 C 9.4152916 18.327016 10.086419 19.084858 10.767578 19.740234 C 10.479211 19.93548 10.192403 20.113571 9.9101562 20.259766 C 8.8181562 20.825766 7.8109219 21.024031 7.0449219 20.582031 C 6.2789219 20.139031 5.946625 19.168453 5.890625 17.939453 C 5.8739403 17.570031 5.8951701 17.172863 5.9316406 16.763672 z M 10.898438 17.716797 C 11.261397 17.736201 11.626962 17.75 12 17.75 C 12.359822 17.75 12.712024 17.734868 13.0625 17.716797 C 12.695055 18.116227 12.32494 18.481565 11.951172 18.8125 C 11.597472 18.48129 11.24642 18.107397 10.898438 17.716797 z"/></svg>