<?xml version="1.0"?><svg xmlns="http://www.w3.org/2000/svg"  viewBox="0 0 24 24" width="240px" height="240px">    <path d="M 9.6679688 2 L 9.1757812 4.5234375 C 8.3477813 4.8354375 7.5926406 5.2695 6.9316406 5.8125 L 4.5078125 4.9785156 L 2.1738281 9.0214844 L 4.1132812 10.708984 C 4.0362813 11.179984 4 11.602 4 12 C 4 12.395 4.0372812 12.817969 4.1132812 13.292969 L 2.1738281 14.980469 L 4.5078125 19.021484 L 6.9296875 18.1875 C 7.5926875 18.7315 8.3487813 19.166516 9.1757812 19.478516 L 9.6679688 22 L 11 22 L 11 18.380859 L 10.925781 18 L 9.8828125 17.605469 C 9.2598125 17.370469 8.6942188 17.046625 8.1992188 16.640625 L 7.3359375 15.931641 L 5.4140625 16.59375 L 4.7304688 15.40625 L 6.265625 14.070312 L 6.0878906 12.974609 C 6.0288906 12.607609 6 12.288 6 12 C 6 11.71 6.0288906 11.392344 6.0878906 11.027344 L 6.265625 9.9296875 L 4.7285156 8.59375 L 5.4140625 7.40625 L 7.3339844 8.0683594 L 8.1992188 7.359375 C 8.6922188 6.953375 9.2607656 6.6295313 9.8847656 6.3945312 L 10.925781 6 L 11.316406 4 L 12.685547 4 L 13.074219 6 L 14.117188 6.3945312 C 14.740187 6.6295313 15.307734 6.953375 15.802734 7.359375 L 16.666016 8.0683594 L 18.585938 7.40625 L 19.271484 8.59375 L 17.736328 9.9277344 L 17.912109 11.025391 L 17.912109 11.029297 C 17.971109 11.393297 18 11.71 18 12 C 18 12.29 17.971109 12.607656 17.912109 12.972656 L 17.734375 14.070312 L 18.802734 15 L 21.814453 15 L 21.826172 14.978516 L 19.886719 13.291016 C 19.962719 12.820016 20 12.398 20 12 C 20 11.602 19.963719 11.179031 19.886719 10.707031 L 21.826172 9.0195312 L 19.492188 4.9785156 L 17.070312 5.8125 C 16.407312 5.2685 15.651219 4.8334844 14.824219 4.5214844 L 14.332031 2 L 9.6679688 2 z M 12 8 C 9.8034768 8 8 9.8034768 8 12 C 8 14.196523 9.8034768 16 12 16 C 14.196523 16 16 14.196523 16 12 C 16 9.8034768 14.196523 8 12 8 z M 12 10 C 13.111477 10 14 10.888523 14 12 C 14 13.111477 13.111477 14 12 14 C 10.888523 14 10 13.111477 10 12 C 10 10.888523 10.888523 10 12 10 z M 14.345703 17 L 13 22 L 14.052734 22 L 14.310547 21 L 15.677734 21 L 15.9375 22 L 17 22 L 15.646484 17 L 14.345703 17 z M 18 17 L 18 22 L 19 22 L 19 20 L 19.5 20 C 20.328 20 21 19.328 21 18.5 C 21 17.672 20.328 17 19.5 17 L 18 17 z M 22 17 L 22 22 L 23 22 L 23 17 L 22 17 z M 19 18 L 19.5 18 C 19.776 18 20 18.224 20 18.5 C 20 18.776 19.776 19 19.5 19 L 19 19 L 19 18 z M 14.992188 18.353516 L 15.419922 20 L 14.568359 20 L 14.992188 18.353516 z"/></svg>