<svg xmlns="http://www.w3.org/2000/svg"  viewBox="0 0 512 512" width="256px" height="256px"><path d="M 22.919922 0 A 22.68 22.68 0 0 0 0 21.419922 A 22.27 22.27 0 0 0 6.2207031 38 A 22.59 22.59 0 0 0 22.5 45 L 106.32031 45 L 158.75 350.82031 A 47.5 47.5 0 0 0 167.49023 445 L 437.49023 445 A 7.5 7.5 0 0 0 437.49023 430 L 167.49023 430 A 32.5 32.5 0 0 1 167.49023 365 L 197.49023 365 A 7.51 7.51 0 0 0 204.88086 356.23047 L 147.74023 22.849609 A 27.44 27.44 0 0 0 120.64062 0 L 22.919922 0 z M 328.55469 49.333984 A 97.5 97.5 0 0 0 227 146.75 A 97.61 97.61 0 0 0 324.5 244.25 A 97.5 97.5 0 0 0 328.55469 49.333984 z M 365.0957 113.83008 A 7.5 7.5 0 0 1 369.83984 127 L 320.58984 177 A 7.5 7.5 0 0 1 309.90039 177 L 279.16016 145.80078 A 7.49 7.49 0 0 1 279.24023 135.19922 L 279.24023 135.25 A 7.49 7.49 0 0 1 289.83984 135.33008 L 315.24023 161.10938 L 359.16016 116.53906 A 7.5 7.5 0 0 1 365.0957 113.83008 z M 180.33984 124.25 L 185.49023 154.25 L 212.25977 154.25 C 212.0931 151.77 212.00667 149.27 212 146.75 A 112.74 112.74 0 0 1 214.25977 124.25 L 180.33984 124.25 z M 434.74023 124.25 A 112.74 112.74 0 0 1 437 146.75 C 437 149.27 436.91357 151.77 436.74023 154.25 L 497 154.25 A 15 15 0 0 0 497 124.25 L 434.74023 124.25 z M 434.74023 169.24023 A 112.69 112.69 0 0 1 324.5 259.25 A 112.69 112.69 0 0 1 214.25977 169.25 L 188.06055 169.25 L 219.67969 353.69922 A 22.52 22.52 0 0 1 218.67969 365 L 418.16992 365 A 27.61 27.61 0 0 0 445.11914 343 L 480.61914 169.24023 L 434.74023 169.24023 z M 170 460 L 170 464.5 A 47.5 47.5 0 0 0 265 464.5 L 265 460 L 170 460 z M 330 460 L 330 464.5 A 47.5 47.5 0 0 0 425 464.5 L 425 460 L 330 460 z"/></svg>